<svg xmlns="http://www.w3.org/2000/svg" width="32" height="32" viewBox="0 0 32 32" fill="none">
  <path d="M29.8836 6.146L16.7418 29.6457C16.4517 30.1728 15.7098 30.1698 15.4237 29.6396L2.14983 6.14517C1.83588 5.56839 2.31385 4.88672 2.97139 5.01572L16.0983 7.58915C16.1983 7.61312 16.3018 7.61315 16.4018 7.58923L29.0586 5.01791C29.7161 4.88702 30.1948 5.56839 29.8836 6.146Z" fill="#41B883"/>
  <path d="M25.9876 1.90401L16.5921 3.69642C16.2315 3.77041 15.8619 3.76688 15.5033 3.68598L5.88895 1.89659C5.06616 1.73156 4.3277 2.49177 4.64526 3.27362L15.4336 27.4764C15.7165 28.1691 16.6893 28.1661 16.9679 27.4715L27.2298 3.27608C27.5424 2.49722 26.8079 1.74006 25.9876 1.90401Z" fill="#35495E"/>
</svg>